<?xml version="1.0" encoding="UTF-8"?>
<svg id="Lag_2" data-name="Lag 2" xmlns="http://www.w3.org/2000/svg" viewBox="0 0 207.74 75.33">
  <defs>
    <style>
      .cls-1 {
        fill: #f7bec4;
      }
    </style>
  </defs>
  <g id="Lag_1-2" data-name="Lag 1">
    <path class="cls-1" d="m177.54,75.11c-10.51,1.04-19.7-4.09-28.25-9.47-6.01-4.23-12.27-8.3-17.84-13.28-30.29-24.33-18.68-36.1-33.15-14.43-15.53,17.92-47.94,38.26-72.15,35.63-9.03-1.18-16.57-6.44-21.21-14.33-.44-1.37-1.29-2.44-2.06-3.57-.11-1.27-.76-2.27-1.55-3.21-.99-2.33-.79-5.08-1.27-7.58-.94-13.54,9.77-26.66,24.03-21.22,2.63,1.94,17.76,11.58,14.08,14.86-.61.31-2.01.21-2.34-.41-1.63-2.15-4.22-2.74-6.34-4.16-3.01-1.97-6.33-4.05-9.9-4.65-7.06,1.62-9.52,11.29-6.51,17.23,3.07,5.28,9.91,7.62,15.8,6.78,5.3-1.18,8.56-5.13,11.89-9.22,9.33-13.44,16.9-27.9,29.57-38.63,9.14-6.84,21.27-7.42,30.64-.72.78.56,1.72,1.02,2.53,1.53,1.01,1.66,2.72,1.42,4.27,1.5,2.61.4,4.56-.69,6.57-2.12,5.98-2.56,12.86-5.19,19.4-3.97,21.6,5.92,29.13,38.39,43.96,52.46,10.08,8.63,22.04-1.23,18.8-13.32-1.37-4.77-6.56-4.46-10.6-4.03-2.57,1.07-4.97,3.09-7.96,3.59-3.54.42-1.17-5.23.23-6.53,11.88-11.8,26.34-4.01,29.32,10.78,2.46,17.29-12.56,32.39-29.94,30.56,0-.02,0-.04,0-.06Z"/>
  </g>
</svg>